<?xml version="1.0" standalone="no"?>
<!DOCTYPE svg PUBLIC "-//W3C//DTD SVG 20010904//EN"
 "http://www.w3.org/TR/2001/REC-SVG-20010904/DTD/svg10.dtd">
<svg version="1.0" xmlns="http://www.w3.org/2000/svg"
 width="1024.000000pt" height="1024.000000pt" viewBox="0 0 1024.000000 1024.000000"
 preserveAspectRatio="xMidYMid meet">
<metadata>
Created by potrace 1.14, written by Peter Selinger 2001-2017
</metadata>
<g transform="translate(0.000000,1024.000000) scale(0.100000,-0.100000)"
fill="#000000" stroke="none">
<path d="M2610 7999 c-238 -27 -445 -192 -529 -422 l-26 -72 0 -2375 0 -2375
23 -65 c105 -290 388 -466 690 -428 248 30 448 191 534 428 l23 65 3 2353 c2
2596 7 2402 -59 2537 -120 245 -382 386 -659 354z"/>
<path d="M7525 8000 c-86 -10 -140 -27 -220 -68 -98 -50 -218 -172 -268 -272
-73 -147 -67 61 -67 -2530 0 -2589 -5 -2382 67 -2529 26 -55 57 -97 117 -157
129 -130 263 -186 447 -186 183 1 313 55 445 187 60 60 89 99 117 155 73 150
67 -63 67 2530 0 2589 5 2382 -67 2529 -48 100 -168 222 -268 273 -113 59
-244 83 -370 68z"/>
<path d="M1377 7295 c-89 -33 -173 -123 -196 -207 -9 -32 -11 -528 -9 -1978
l3 -1935 23 -47 c30 -60 90 -120 150 -150 68 -33 216 -33 284 0 60 30 120 90
150 150 l23 47 0 1955 0 1955 -23 47 c-30 60 -90 120 -150 150 -59 29 -195 36
-255 13z"/>
<path d="M8670 7293 c-29 -10 -67 -39 -106 -77 -104 -104 -95 116 -92 -2101
l3 -1940 23 -47 c53 -108 150 -170 274 -176 112 -6 167 15 244 92 104 104 95
-116 92 2101 l-3 1940 -23 47 c-30 60 -90 120 -150 150 -61 30 -195 36 -262
11z"/>
<path d="M655 5943 c-93 -20 -170 -82 -216 -171 l-24 -47 -3 -565 c-4 -670 -5
-658 87 -751 77 -77 132 -96 279 -98 l112 -2 0 821 0 820 -107 -1 c-60 -1
-117 -3 -128 -6z"/>
<path d="M3630 5130 l0 -820 1520 0 1520 0 0 820 0 820 -1520 0 -1520 0 0
-820z"/>
<path d="M9390 5131 l0 -822 88 2 c48 1 101 6 117 11 17 5 35 10 40 11 24 5
86 50 118 86 19 21 44 64 56 96 21 57 22 65 19 634 l-3 576 -23 47 c-32 64
-85 116 -152 147 -45 20 -74 26 -157 29 l-103 4 0 -821z"/>
</g>
</svg>
